<svg width="231" height="60" viewBox="0 0 231 60" fill="#462DE0" xmlns="http://www.w3.org/2000/svg">
<path fill-rule="evenodd" clip-rule="evenodd" d="M85.8951 47.3968L75.9627 35.5386V47.3968H70.6924V11.7211H75.9627V33.765L85.135 22.4643H91.9255L81.5877 34.3224L92.7363 47.3461H85.8951V47.3968ZM104.696 36.2481C103.378 36.2481 99.1214 36.5015 99.1214 40.0488C99.1214 40.7582 99.4255 43.0386 103.581 43.0386C104.189 43.0386 109.561 42.9373 111.537 39.694V39.6434V37.667L111.486 37.6163C109.003 36.7042 106.267 36.2481 104.696 36.2481ZM103.378 47.9035C97.5505 47.9035 93.9018 44.9136 93.9018 40.0488C93.9018 34.9812 97.8039 32.0927 104.594 32.0927C106.875 32.0927 109.155 32.6501 111.436 33.7143L111.588 33.765V32.4474C111.588 28.9508 109.054 26.6704 105.152 26.6704C102.466 26.6704 99.6282 28.0386 98.0572 30.0657L95.0167 26.8224C98.1079 22.515 102.922 21.9069 105.507 21.9069C112.804 21.9069 116.858 25.6569 116.858 32.4474V47.3461H111.588V44.4069L111.385 44.6603C109.155 47.4981 105.405 47.9035 103.378 47.9035ZM122.888 47.3968V11.7211H128.209V47.3968H122.888ZM145.844 26.569C141.79 26.569 138.851 29.0522 138.294 32.8528V32.9542H153.142V32.8528C152.534 28.9508 149.797 26.569 145.844 26.569ZM145.844 47.9035C138.446 47.9035 133.023 42.4305 133.023 34.8292C133.023 31.0285 134.341 27.7853 136.773 25.4035C139.105 23.1738 142.297 21.9069 145.844 21.9069C153.192 21.9069 158.311 27.2278 158.311 34.8292C158.311 35.3866 158.311 36.2481 158.26 36.7549H138.294V36.8562C138.851 40.7582 141.892 43.2413 146.098 43.2413C149.037 43.2413 151.723 41.8224 152.99 39.694C153.8 40.0995 154.763 40.5049 155.676 40.8596C156.233 41.113 156.79 41.3663 157.348 41.569C155.27 45.5724 151.013 47.9035 145.844 47.9035ZM162.871 47.3968V22.4643H168.142V47.3461H162.871V47.3968ZM185.878 27.1265C181.469 27.1265 178.226 30.3697 178.226 34.8799C178.226 39.4407 181.419 42.7853 185.878 42.7853C189.73 42.7853 193.682 40.0488 193.682 34.8799C193.682 29.8123 189.679 27.1265 185.878 27.1265ZM185.169 47.9035C178.074 47.9035 172.753 42.3292 172.753 34.9305C172.753 27.3799 177.973 21.9069 185.169 21.9069C188.919 21.9069 192.162 23.4778 193.581 26.0116L193.784 26.3663V11.6704H199.054V47.3461H193.784V43.3934L193.581 43.7481C192.111 46.2819 188.817 47.9035 185.169 47.9035ZM216.993 27.1772C212.534 27.1772 209.29 30.4204 209.29 34.8799C209.29 39.4407 212.534 42.7853 216.993 42.7853C221.503 42.7853 224.746 39.4407 224.746 34.8799C224.746 30.3697 221.503 27.1772 216.993 27.1772ZM216.993 47.9035C213.496 47.9035 210.253 46.6366 207.871 44.3562C205.388 41.9745 204.02 38.5792 204.02 34.8799C204.02 27.3799 209.493 21.9576 216.993 21.9576C224.544 21.9576 230.067 27.3799 230.067 34.8799C230.067 38.6299 228.699 41.9745 226.216 44.3562C223.784 46.6366 220.54 47.9035 216.993 47.9035ZM165.507 17.7515C163.53 17.7515 161.909 16.2312 161.909 14.3562C161.909 12.4812 163.53 10.9609 165.507 10.9609C167.483 10.9609 169.054 12.4305 169.054 14.3562C169.054 16.2819 167.534 17.7515 165.507 17.7515Z"/>
<path fill-rule="evenodd" clip-rule="evenodd" d="M50.321 19.8649V26.402L31.3682 15.5068L39.7804 10.6419L47.5845 15.152C49.2568 16.1149 50.321 17.9392 50.321 19.8649ZM4.25676 33.598L23.2095 44.5439L14.7973 49.4088L6.99324 44.8986C5.32095 43.9358 4.25676 42.1115 4.25676 40.1858V33.598V33.598ZM16.7736 36.1318V26.25L35.8277 37.2466L27.3142 42.1622L16.7736 36.1318ZM27.3142 17.8378L37.8547 23.9189V33.75L18.8007 22.7534L27.3142 17.8378ZM27.3142 4.30743C28.277 4.30743 29.2399 4.56081 30.0507 5.01689L35.7264 8.31081L16.7736 19.2568V9.5777L24.6284 5.06757C25.3885 4.56081 26.3514 4.30743 27.3142 4.30743ZM6.99324 15.152L12.6689 11.8581V33.75L4.25676 28.9358V19.8649C4.25676 17.9392 5.32095 16.1149 6.99324 15.152ZM37.8547 50.473L30 54.9831C29.1892 55.4392 28.2264 55.6926 27.2635 55.6926C26.3007 55.6926 25.3378 55.4392 24.527 54.9831L18.8514 51.6892L37.8041 40.7432L37.8547 50.473ZM47.5845 44.8986L41.9088 48.1419V26.25L50.321 31.0642V40.1351C50.321 42.1115 49.2568 43.9358 47.5845 44.8986ZM49.7128 11.4527L32.1791 1.31757C30.7095 0.456081 28.9865 0 27.3142 0C25.5912 0 23.9189 0.456081 22.4493 1.31757L4.91554 11.4527C1.875 13.1757 0 16.4189 0 19.8649V40.1351C0 43.5811 1.875 46.8243 4.86487 48.5473L22.3987 58.6824C23.8682 59.5439 25.5405 60 27.2635 60C28.9865 60 30.6588 59.5439 32.1284 58.6824L49.6622 48.5473C52.652 46.8243 54.527 43.5811 54.527 40.1351V19.8649C54.5777 16.4189 52.7534 13.1757 49.7128 11.4527Z"/>
</svg>